<mxfile host="app.diagrams.net" agent="Mozilla/5.0 (Windows NT 10.0; Win64; x64) AppleWebKit/537.36 (KHTML, like Gecko) Chrome/139.0.0.0 Safari/537.36" version="28.1.2">
  <diagram id="DominioAlquilerAutos" name="Dominio">
    <mxGraphModel dx="1281" dy="562" grid="1" gridSize="10" guides="1" tooltips="1" connect="1" arrows="1" fold="1" page="1" pageScale="1" pageWidth="827" pageHeight="1169" math="0" shadow="0">
      <root>
        <mxCell id="0" />
        <mxCell id="1" parent="0" />
        <mxCell id="usuario" value="Usuario" style="rounded=1;whiteSpace=wrap;html=1;fillColor=#dae8fc;strokeColor=#6c8ebf;fontSize=14;fontStyle=1" parent="1" vertex="1">
          <mxGeometry x="200" y="100" width="120" height="60" as="geometry" />
        </mxCell>
        <mxCell id="dueno" value="Dueño" style="rounded=1;whiteSpace=wrap;html=1;fillColor=#e1d5e7;strokeColor=#9673a6;fontSize=12" parent="1" vertex="1">
          <mxGeometry x="70" y="210" width="100" height="50" as="geometry" />
        </mxCell>
        <mxCell id="cliente" value="Cliente" style="rounded=1;whiteSpace=wrap;html=1;fillColor=#e1d5e7;strokeColor=#9673a6;fontSize=12" parent="1" vertex="1">
          <mxGeometry x="340" y="220" width="100" height="50" as="geometry" />
        </mxCell>
        <mxCell id="auto" value="Automóvil" style="rounded=1;whiteSpace=wrap;html=1;fillColor=#fff2cc;strokeColor=#d6b656;fontSize=14;fontStyle=1" parent="1" vertex="1">
          <mxGeometry x="200" y="350" width="120" height="60" as="geometry" />
        </mxCell>
        <mxCell id="reserva" value="Reserva" style="rounded=1;whiteSpace=wrap;html=1;fillColor=#f8cecc;strokeColor=#b85450;fontSize=14;fontStyle=1" parent="1" vertex="1">
          <mxGeometry x="500" y="350" width="120" height="60" as="geometry" />
        </mxCell>
        <mxCell id="pago" value="Pago" style="rounded=1;whiteSpace=wrap;html=1;fillColor=#d5e8d4;strokeColor=#82b366;fontSize=14;fontStyle=1" parent="1" vertex="1">
          <mxGeometry x="700" y="350" width="100" height="60" as="geometry" />
        </mxCell>
        <mxCell id="notificacion" value="Notificación" style="rounded=1;whiteSpace=wrap;html=1;fillColor=#ffe6cc;strokeColor=#d79b00;fontSize=12" parent="1" vertex="1">
          <mxGeometry x="60" y="100" width="100" height="60" as="geometry" />
        </mxCell>
        <mxCell id="herencia1" value="" style="endArrow=block;endFill=0;html=1;rounded=0;exitX=0.5;exitY=0;exitDx=0;exitDy=0;entryX=0.25;entryY=1;entryDx=0;entryDy=0;strokeWidth=2" parent="1" source="dueno" target="usuario" edge="1">
          <mxGeometry width="50" height="50" relative="1" as="geometry">
            <mxPoint x="400" y="300" as="sourcePoint" />
            <mxPoint x="450" y="250" as="targetPoint" />
          </mxGeometry>
        </mxCell>
        <mxCell id="herencia2" value="" style="endArrow=block;endFill=0;html=1;rounded=0;exitX=0.5;exitY=0;exitDx=0;exitDy=0;entryX=0.75;entryY=1;entryDx=0;entryDy=0;strokeWidth=2" parent="1" source="cliente" target="usuario" edge="1">
          <mxGeometry width="50" height="50" relative="1" as="geometry">
            <mxPoint x="400" y="300" as="sourcePoint" />
            <mxPoint x="450" y="250" as="targetPoint" />
          </mxGeometry>
        </mxCell>
        <mxCell id="posee" value="" style="endArrow=none;html=1;rounded=0;exitX=0.5;exitY=1;exitDx=0;exitDy=0;entryX=0;entryY=0.5;entryDx=0;entryDy=0;strokeWidth=2" parent="1" source="dueno" target="auto" edge="1">
          <mxGeometry width="50" height="50" relative="1" as="geometry">
            <mxPoint x="400" y="300" as="sourcePoint" />
            <mxPoint x="450" y="250" as="targetPoint" />
          </mxGeometry>
        </mxCell>
        <mxCell id="poseeLabel" value="posee" style="text;html=1;strokeColor=none;fillColor=none;align=center;verticalAlign=middle;whiteSpace=wrap;rounded=0;fontSize=10" parent="1" vertex="1">
          <mxGeometry x="120" y="290" width="40" height="20" as="geometry" />
        </mxCell>
        <mxCell id="posee1" value="1" style="text;html=1;strokeColor=none;fillColor=none;align=center;verticalAlign=middle;whiteSpace=wrap;rounded=0;fontSize=10;fontStyle=1" parent="1" vertex="1">
          <mxGeometry x="105" y="270" width="20" height="20" as="geometry" />
        </mxCell>
        <mxCell id="poseeM" value="*" style="text;html=1;strokeColor=none;fillColor=none;align=center;verticalAlign=middle;whiteSpace=wrap;rounded=0;fontSize=10;fontStyle=1" parent="1" vertex="1">
          <mxGeometry x="180" y="360" width="20" height="20" as="geometry" />
        </mxCell>
        <mxCell id="reservaAuto" value="" style="endArrow=none;html=1;rounded=0;exitX=0.5;exitY=1;exitDx=0;exitDy=0;entryX=1;entryY=0.5;entryDx=0;entryDy=0;strokeWidth=2" parent="1" source="cliente" target="auto" edge="1">
          <mxGeometry width="50" height="50" relative="1" as="geometry">
            <mxPoint x="400" y="300" as="sourcePoint" />
            <mxPoint x="450" y="250" as="targetPoint" />
          </mxGeometry>
        </mxCell>
        <mxCell id="reservaAutoLabel" value="reserva" style="text;html=1;strokeColor=none;fillColor=none;align=center;verticalAlign=middle;whiteSpace=wrap;rounded=0;fontSize=10" parent="1" vertex="1">
          <mxGeometry x="360" y="290" width="40" height="20" as="geometry" />
        </mxCell>
        <mxCell id="reservaAuto1" value="1" style="text;html=1;strokeColor=none;fillColor=none;align=center;verticalAlign=middle;whiteSpace=wrap;rounded=0;fontSize=10;fontStyle=1" parent="1" vertex="1">
          <mxGeometry x="385" y="270" width="20" height="20" as="geometry" />
        </mxCell>
        <mxCell id="reservaAutoM" value="*" style="text;html=1;strokeColor=none;fillColor=none;align=center;verticalAlign=middle;whiteSpace=wrap;rounded=0;fontSize=10;fontStyle=1" parent="1" vertex="1">
          <mxGeometry x="320" y="360" width="20" height="20" as="geometry" />
        </mxCell>
        <mxCell id="genera" value="" style="endArrow=none;html=1;rounded=0;exitX=1;exitY=0.5;exitDx=0;exitDy=0;entryX=0;entryY=0.5;entryDx=0;entryDy=0;strokeWidth=2" parent="1" source="reserva" target="pago" edge="1">
          <mxGeometry width="50" height="50" relative="1" as="geometry">
            <mxPoint x="400" y="300" as="sourcePoint" />
            <mxPoint x="450" y="250" as="targetPoint" />
          </mxGeometry>
        </mxCell>
        <mxCell id="generaLabel" value="genera" style="text;html=1;strokeColor=none;fillColor=none;align=center;verticalAlign=middle;whiteSpace=wrap;rounded=0;fontSize=10" parent="1" vertex="1">
          <mxGeometry x="630" y="360" width="40" height="20" as="geometry" />
        </mxCell>
        <mxCell id="genera1L" value="1" style="text;html=1;strokeColor=none;fillColor=none;align=center;verticalAlign=middle;whiteSpace=wrap;rounded=0;fontSize=10;fontStyle=1" parent="1" vertex="1">
          <mxGeometry x="620" y="370" width="20" height="20" as="geometry" />
        </mxCell>
        <mxCell id="genera1R" value="1" style="text;html=1;strokeColor=none;fillColor=none;align=center;verticalAlign=middle;whiteSpace=wrap;rounded=0;fontSize=10;fontStyle=1" parent="1" vertex="1">
          <mxGeometry x="680" y="370" width="20" height="20" as="geometry" />
        </mxCell>
        <mxCell id="autoReserva" value="" style="endArrow=none;html=1;rounded=0;exitX=1;exitY=0.5;exitDx=0;exitDy=0;entryX=0;entryY=0.5;entryDx=0;entryDy=0;strokeWidth=2" parent="1" source="auto" target="reserva" edge="1">
          <mxGeometry width="50" height="50" relative="1" as="geometry">
            <mxPoint x="400" y="300" as="sourcePoint" />
            <mxPoint x="450" y="250" as="targetPoint" />
          </mxGeometry>
        </mxCell>
        <mxCell id="autoReservaLabel" value="se reserva mediante" style="text;html=1;strokeColor=none;fillColor=none;align=center;verticalAlign=middle;whiteSpace=wrap;rounded=0;fontSize=10" parent="1" vertex="1">
          <mxGeometry x="350" y="400" width="120" height="20" as="geometry" />
        </mxCell>
        <mxCell id="autoReserva1" value="1" style="text;html=1;strokeColor=none;fillColor=none;align=center;verticalAlign=middle;whiteSpace=wrap;rounded=0;fontSize=10;fontStyle=1" parent="1" vertex="1">
          <mxGeometry x="320" y="370" width="20" height="20" as="geometry" />
        </mxCell>
        <mxCell id="autoReservaM" value="*" style="text;html=1;strokeColor=none;fillColor=none;align=center;verticalAlign=middle;whiteSpace=wrap;rounded=0;fontSize=10;fontStyle=1" parent="1" vertex="1">
          <mxGeometry x="480" y="370" width="20" height="20" as="geometry" />
        </mxCell>
        <mxCell id="usuarioNotif" value="" style="endArrow=none;html=1;rounded=0;exitX=0;exitY=0.5;exitDx=0;exitDy=0;entryX=1;entryY=0.5;entryDx=0;entryDy=0;strokeWidth=2" parent="1" source="usuario" target="notificacion" edge="1">
          <mxGeometry width="50" height="50" relative="1" as="geometry">
            <mxPoint x="400" y="300" as="sourcePoint" />
            <mxPoint x="450" y="250" as="targetPoint" />
          </mxGeometry>
        </mxCell>
        <mxCell id="usuarioNotifLabel" value="recibe" style="text;html=1;strokeColor=none;fillColor=none;align=center;verticalAlign=middle;whiteSpace=wrap;rounded=0;fontSize=10" parent="1" vertex="1">
          <mxGeometry x="170" y="110" width="30" height="20" as="geometry" />
        </mxCell>
        <mxCell id="usuarioNotif1" value="1" style="text;html=1;strokeColor=none;fillColor=none;align=center;verticalAlign=middle;whiteSpace=wrap;rounded=0;fontSize=10;fontStyle=1" parent="1" vertex="1">
          <mxGeometry x="180" y="120" width="20" height="20" as="geometry" />
        </mxCell>
        <mxCell id="usuarioNotifM" value="*" style="text;html=1;strokeColor=none;fillColor=none;align=center;verticalAlign=middle;whiteSpace=wrap;rounded=0;fontSize=10;fontStyle=1" parent="1" vertex="1">
          <mxGeometry x="160" y="120" width="20" height="20" as="geometry" />
        </mxCell>
        <mxCell id="titulo" value="DOMINIO: Sistema de Alquiler de Automóviles" style="text;html=1;strokeColor=none;fillColor=none;align=center;verticalAlign=middle;whiteSpace=wrap;rounded=0;fontSize=16;fontStyle=1" parent="1" vertex="1">
          <mxGeometry x="250" y="20" width="350" height="30" as="geometry" />
        </mxCell>
        <mxCell id="leyenda" value="Entidades del Dominio&#xa;&#xa;• Usuario: Actor principal del sistema&#xa;• Dueño: Publica automóviles&#xa;• Cliente: Reserva automóviles&#xa;• Automóvil: Recurso a alquilar&#xa;• Reserva: Proceso de alquiler&#xa;• Pago: Transacción financiera&#xa;• Notificación: Comunicación" style="text;html=1;strokeColor=#82b366;fillColor=#d5e8d4;align=left;verticalAlign=top;whiteSpace=wrap;rounded=1;fontSize=10" parent="1" vertex="1">
          <mxGeometry x="60" y="450" width="200" height="150" as="geometry" />
        </mxCell>
        <mxCell id="reglas" value="Reglas de Negocio&#xa;&#xa;• Un dueño puede poseer múltiples autos&#xa;• Un cliente puede reservar múltiples autos&#xa;• Un auto puede tener múltiples reservas&#xa;• Cada reserva genera un único pago&#xa;• Los usuarios reciben notificaciones&#xa;• Las reservas tienen estados: hold, confirmado, cancelado, fin" style="text;html=1;strokeColor=#d6b656;fillColor=#fff2cc;align=left;verticalAlign=top;whiteSpace=wrap;rounded=1;fontSize=10" parent="1" vertex="1">
          <mxGeometry x="500" y="450" width="280" height="150" as="geometry" />
        </mxCell>
      </root>
    </mxGraphModel>
  </diagram>
</mxfile>
